<svg width="16" height="16" viewBox="0 0 16 16" fill="none" xmlns="http://www.w3.org/2000/svg">
<path d="M14.6467 12.2202C14.6467 12.4602 14.5933 12.7068 14.48 12.9468C14.3667 13.1868 14.22 13.4135 14.0267 13.6268C13.7 13.9868 13.34 14.2468 12.9333 14.4135C12.5333 14.5802 12.1 14.6668 11.6333 14.6668C10.9533 14.6668 10.2267 14.5068 9.46 14.1802C8.69334 13.8535 7.92667 13.4135 7.16667 12.8602C6.4 12.3002 5.67334 11.6802 4.98 10.9935C4.29334 10.3002 3.67334 9.5735 3.12 8.8135C2.57334 8.0535 2.13334 7.2935 1.81334 6.54016C1.49334 5.78016 1.33334 5.0535 1.33334 4.36016C1.33334 3.90683 1.41334 3.4735 1.57334 3.0735C1.73334 2.66683 1.98667 2.2935 2.34 1.96016C2.76667 1.54016 3.23334 1.3335 3.72667 1.3335C3.91334 1.3335 4.1 1.3735 4.26667 1.4535C4.44 1.5335 4.59334 1.6535 4.71334 1.82683L6.26 4.00683C6.38 4.1735 6.46667 4.32683 6.52667 4.4735C6.58667 4.6135 6.62 4.7535 6.62 4.88016C6.62 5.04016 6.57334 5.20016 6.48 5.3535C6.39334 5.50683 6.26667 5.66683 6.10667 5.82683L5.6 6.3535C5.52667 6.42683 5.49334 6.5135 5.49334 6.62016C5.49334 6.6735 5.5 6.72016 5.51334 6.7735C5.53334 6.82683 5.55334 6.86683 5.56667 6.90683C5.68667 7.12683 5.89334 7.4135 6.18667 7.76016C6.48667 8.10683 6.80667 8.46016 7.15334 8.8135C7.51334 9.16683 7.86 9.4935 8.21334 9.7935C8.56 10.0868 8.84667 10.2868 9.07334 10.4068C9.10667 10.4202 9.14667 10.4402 9.19334 10.4602C9.24667 10.4802 9.3 10.4868 9.36 10.4868C9.47334 10.4868 9.56 10.4468 9.63334 10.3735L10.14 9.8735C10.3067 9.70683 10.4667 9.58016 10.62 9.50016C10.7733 9.40683 10.9267 9.36016 11.0933 9.36016C11.22 9.36016 11.3533 9.38683 11.5 9.44683C11.6467 9.50683 11.8 9.5935 11.9667 9.70683L14.1733 11.2735C14.3467 11.3935 14.4667 11.5335 14.54 11.7002C14.6067 11.8668 14.6467 12.0335 14.6467 12.2202Z" stroke="#FCFCFC" stroke-width="1.5" stroke-miterlimit="10"/>
</svg>
