<svg width="24" height="24" viewBox="0 0 24 24" fill="none" xmlns="http://www.w3.org/2000/svg">
<path fill-rule="evenodd" clip-rule="evenodd" d="M0 12C0 5.37258 5.37258 0 12 0C18.6274 0 24 5.37258 24 12C24 18.6274 18.6274 24 12 24C5.37258 24 0 18.6274 0 12Z" fill="#3EAE7D"/>
<path d="M15.4836 5.41895H13.5833C12.7433 5.41895 11.9378 5.7656 11.3438 6.38266C10.7498 6.99971 10.4162 7.83662 10.4162 8.70927V10.6835H8.51587V13.3157H10.4162V18.5802H12.9499V13.3157H14.8502L15.4836 10.6835H12.9499V8.70927C12.9499 8.53474 13.0166 8.36736 13.1354 8.24395C13.2542 8.12054 13.4153 8.0512 13.5833 8.0512H15.4836V5.41895Z" fill="#FCFCFC"/>
</svg>
