<svg width="16" height="18" viewBox="0 0 16 18" fill="none" xmlns="http://www.w3.org/2000/svg">
<path d="M8.16464 7.78288H15.8714C15.9503 8.20783 15.9966 8.69723 15.9986 9.19725V9.19937C15.9993 9.24611 16 9.30136 16 9.3566C16 10.8659 15.6415 12.288 15.0088 13.536L15.0312 13.4871C14.391 14.735 13.4501 15.7393 12.3072 16.4171L12.2725 16.4362C11.1329 17.1055 9.7709 17.5 8.32044 17.5C8.26533 17.5 8.21022 17.4993 8.1558 17.4986H8.16396C8.15512 17.4986 8.14423 17.4986 8.13403 17.4986C6.99651 17.4986 5.91411 17.2521 4.93375 16.808L4.98546 16.8293C3.01114 15.9659 1.47223 14.3632 0.662641 12.3631L0.642912 12.3086C0.236075 11.3319 0 10.1945 0 8.99965C0 7.80484 0.236755 6.6674 0.663322 5.63548L0.642912 5.69073C1.47223 3.6354 3.01182 2.03335 4.93307 1.19054L4.98546 1.17C5.91343 0.747177 6.99447 0.501416 8.1313 0.501416H8.166H8.16396C8.2041 0.500708 8.25172 0.5 8.29935 0.5C10.371 0.5 12.2527 1.34777 13.642 2.72885L13.6393 2.72601L11.4173 4.95061C10.6091 4.13471 9.50557 3.63115 8.28914 3.63115C8.24492 3.63115 8.20138 3.63186 8.15716 3.63327H8.16328C8.15376 3.63327 8.14287 3.63327 8.1313 3.63327C7.20742 3.63327 6.34272 3.90099 5.6066 4.3656L5.62837 4.35285C4.10035 5.31465 3.09414 7.03568 3.09414 9.00035C3.09414 10.965 4.10035 12.6861 5.60524 13.6344L5.62837 13.6479C6.3434 14.0997 7.20742 14.3674 8.1313 14.3674H8.16532H8.16328H8.21975C8.80755 14.3674 9.37291 14.2704 9.90288 14.0898L9.86478 14.1011C10.3519 13.9439 10.7757 13.7173 11.1526 13.4283L11.1411 13.4368C11.4717 13.1726 11.7581 12.8745 12.0037 12.5416L12.0119 12.5302C12.2242 12.2519 12.4079 11.9346 12.5494 11.5947L12.5596 11.567C12.6609 11.3191 12.7439 11.0295 12.795 10.7285L12.7984 10.7037H8.16464V7.78288Z" fill="#717784"/>
</svg>
