<svg width="12" height="10" viewBox="0 0 12 10" fill="none" xmlns="http://www.w3.org/2000/svg">
<path d="M12 0.505044C11.4777 0.843842 10.8993 1.10297 10.2873 1.27244C9.95877 0.925113 9.52218 0.678934 9.03656 0.567201C8.55095 0.455469 8.03973 0.483574 7.57204 0.647717C7.10436 0.811859 6.70279 1.10412 6.42163 1.48497C6.14047 1.86582 5.99329 2.31688 6 2.77715V3.27872C5.04144 3.30158 4.0916 3.10609 3.2351 2.70966C2.37859 2.31324 1.64199 1.72819 1.09091 1.00661C1.09091 1.00661 -1.09091 5.52074 3.81818 7.52701C2.69483 8.22819 1.35663 8.57977 0 8.53015C4.90909 11.038 10.9091 8.53015 10.9091 2.76211C10.9086 2.6224 10.894 2.48303 10.8655 2.3458C11.4221 1.84097 11.815 1.20359 12 0.505044Z" fill="#717784"/>
</svg>
