<svg width="24" height="24" viewBox="0 0 24 24" fill="none" xmlns="http://www.w3.org/2000/svg">
<path fill-rule="evenodd" clip-rule="evenodd" d="M0 12C0 5.37258 5.37258 0 12 0C18.6274 0 24 5.37258 24 12C24 18.6274 18.6274 24 12 24C5.37258 24 0 18.6274 0 12Z" fill="#3EAE7D"/>
<path d="M14.7335 9.29004C15.7602 9.29004 16.7448 9.6665 17.4707 10.3366C18.1967 11.0067 18.6045 11.9156 18.6045 12.8632V17.032H16.0238V12.8632C16.0238 12.5473 15.8879 12.2444 15.6459 12.021C15.4039 11.7977 15.0757 11.6722 14.7335 11.6722C14.3913 11.6722 14.0631 11.7977 13.8211 12.021C13.5791 12.2444 13.4432 12.5473 13.4432 12.8632V17.032H10.8625V12.8632C10.8625 11.9156 11.2704 11.0067 11.9963 10.3366C12.7223 9.6665 13.7069 9.29004 14.7335 9.29004Z" fill="#FCFCFC"/>
<path d="M9.2906 9.29004H6.96802V17.032H9.2906V9.29004Z" fill="#FCFCFC"/>
<path d="M8.12931 7.74153C8.77067 7.74153 9.2906 7.2216 9.2906 6.58024C9.2906 5.93887 8.77067 5.41895 8.12931 5.41895C7.48794 5.41895 6.96802 5.93887 6.96802 6.58024C6.96802 7.2216 7.48794 7.74153 8.12931 7.74153Z" fill="#FCFCFC"/>
</svg>
