<svg width="12" height="12" viewBox="0 0 12 12" fill="none" xmlns="http://www.w3.org/2000/svg">
<path fill-rule="evenodd" clip-rule="evenodd" d="M8.16385 3.79214C8.40427 4.03257 8.40427 4.42238 8.16385 4.6628L4.6812 8.14545C4.44077 8.38588 4.05097 8.38588 3.81054 8.14545C3.57011 7.90502 3.57011 7.51521 3.81054 7.27479L7.29318 3.79214C7.53361 3.55172 7.92342 3.55172 8.16385 3.79214Z" fill="#A9ACB4"/>
<path fill-rule="evenodd" clip-rule="evenodd" d="M4.28969 3.35691C4.04927 3.11648 4.04927 2.72667 4.28969 2.48624L4.69384 2.0821C6.1364 0.639543 8.47525 0.639543 9.91781 2.0821C11.3604 3.52466 11.3604 5.86351 9.91781 7.30607L9.51366 7.71021C9.27324 7.95064 8.88343 7.95064 8.643 7.71021C8.40258 7.46979 8.40258 7.07998 8.643 6.83955L9.04714 6.43541C10.0089 5.4737 10.0089 3.91447 9.04714 2.95276C8.08544 1.99106 6.5262 1.99106 5.5645 2.95276L5.16036 3.35691C4.91993 3.59733 4.53012 3.59733 4.28969 3.35691Z" fill="#717784"/>
<path fill-rule="evenodd" clip-rule="evenodd" d="M3.35672 4.28985C3.1163 4.04942 2.72649 4.04942 2.48606 4.28985L2.08192 4.69399C0.63936 6.13655 0.63936 8.4754 2.08192 9.91796C3.52448 11.3605 5.86333 11.3605 7.30589 9.91796L7.71003 9.51382C7.95046 9.27339 7.95046 8.88358 7.71003 8.64315C7.4696 8.40273 7.07979 8.40273 6.83937 8.64315L6.43523 9.0473C5.47352 10.009 3.91429 10.009 2.95258 9.0473C1.99087 8.08559 1.99087 6.52636 2.95258 5.56465L3.35672 5.16051C3.59715 4.92008 3.59715 4.53027 3.35672 4.28985Z" fill="#717784"/>
</svg>
