<svg width="12" height="12" viewBox="0 0 12 12" fill="none" xmlns="http://www.w3.org/2000/svg">
<path d="M11 3V4.21C11 5 10.5 5.5 9.71 5.5H8V2.005C8 1.45 8.455 1 9.01 1C9.555 1.005 10.055 1.225 10.415 1.585C10.775 1.95 11 2.45 11 3Z" stroke="#717784" stroke-miterlimit="10" stroke-linecap="round" stroke-linejoin="round"/>
<path d="M1 3.5V10.5C1 10.915 1.47 11.15 1.8 10.9L2.655 10.26C2.855 10.11 3.135 10.13 3.315 10.31L4.145 11.145C4.34 11.34 4.66 11.34 4.855 11.145L5.695 10.305C5.87 10.13 6.15 10.11 6.345 10.26L7.2 10.9C7.53 11.145 8 10.91 8 10.5V2C8 1.45 8.45 1 9 1H3.5H3C1.5 1 1 1.895 1 3V3.5Z" stroke="#717784" stroke-miterlimit="10" stroke-linecap="round" stroke-linejoin="round"/>
<path opacity="0.4" d="M4.5 6.505H6" stroke="#717784" stroke-linecap="round" stroke-linejoin="round"/>
<path opacity="0.4" d="M4.5 4.505H6" stroke="#717784" stroke-linecap="round" stroke-linejoin="round"/>
<path opacity="0.4" d="M2.99805 6.5H3.00254" stroke="#717784" stroke-linecap="round" stroke-linejoin="round"/>
<path opacity="0.4" d="M2.99774 4.5H3.00223" stroke="#717784" stroke-linecap="round" stroke-linejoin="round"/>
</svg>
