<svg width="24" height="24" viewBox="0 0 24 24" fill="none" xmlns="http://www.w3.org/2000/svg">
<path fill-rule="evenodd" clip-rule="evenodd" d="M0 12C0 5.37258 5.37258 0 12 0C18.6274 0 24 5.37258 24 12C24 18.6274 18.6274 24 12 24C5.37258 24 0 18.6274 0 12Z" fill="#3EAE7D"/>
<path d="M18.75 6.75588C18.1624 7.15115 17.5117 7.45346 16.8232 7.65119C16.4536 7.24597 15.9625 6.95876 15.4161 6.8284C14.8698 6.69805 14.2947 6.73084 13.7685 6.92234C13.2424 7.11384 12.7906 7.45481 12.4743 7.89913C12.158 8.34345 11.9925 8.86969 12 9.40668V9.99184C10.9216 10.0185 9.85305 9.79044 8.88948 9.32794C7.92591 8.86545 7.09724 8.18289 6.47727 7.34105C6.47727 7.34105 4.02273 12.6075 9.54545 14.9482C8.28169 15.7662 6.77621 16.1764 5.25 16.1185C10.7727 19.0443 17.5227 16.1185 17.5227 9.38912C17.5222 9.22613 17.5057 9.06353 17.4736 8.90344C18.0999 8.31447 18.5419 7.57085 18.75 6.75588Z" fill="#FCFCFC"/>
</svg>
