<svg width="12" height="12" viewBox="0 0 12 12" fill="none" xmlns="http://www.w3.org/2000/svg">
<path d="M10.5401 4.29002V7.71C10.5401 8.27 10.2401 8.79002 9.75508 9.07502L6.78508 10.79C6.30008 11.07 5.70008 11.07 5.21008 10.79L2.24008 9.07502C1.75508 8.79502 1.45508 8.275 1.45508 7.71V4.29002C1.45508 3.73002 1.75508 3.21 2.24008 2.925L5.21008 1.21C5.69508 0.93 6.29508 0.93 6.78508 1.21L9.75508 2.925C10.2401 3.21 10.5401 3.72502 10.5401 4.29002Z" stroke="#717784" stroke-linecap="round" stroke-linejoin="round"/>
<path opacity="0.4" d="M5.99996 5.5C6.64337 5.5 7.16496 4.9784 7.16496 4.33499C7.16496 3.69158 6.64337 3.17001 5.99996 3.17001C5.35655 3.17001 4.83496 3.69158 4.83496 4.33499C4.83496 4.9784 5.35655 5.5 5.99996 5.5Z" stroke="#717784" stroke-linecap="round" stroke-linejoin="round"/>
<path opacity="0.4" d="M8 8.32999C8 7.42999 7.105 6.70001 6 6.70001C4.895 6.70001 4 7.42999 4 8.32999" stroke="#717784" stroke-linecap="round" stroke-linejoin="round"/>
</svg>
