<svg width="24" height="24" viewBox="0 0 24 24" fill="none" xmlns="http://www.w3.org/2000/svg">
<path fill-rule="evenodd" clip-rule="evenodd" d="M0 12C0 5.37258 5.37258 0 12 0C18.6274 0 24 5.37258 24 12C24 18.6274 18.6274 24 12 24C5.37258 24 0 18.6274 0 12Z" fill="#3EAE7D"/>
<path d="M15.75 18H8.25C6 18 4.5 16.5 4.5 14.25V9.75C4.5 7.5 6 6 8.25 6H15.75C18 6 19.5 7.5 19.5 9.75V14.25C19.5 16.5 18 18 15.75 18Z" stroke="#FCFCFC" stroke-width="1.5" stroke-miterlimit="10" stroke-linecap="round" stroke-linejoin="round"/>
<path d="M11.565 10.1176L13.4175 11.2276C14.1225 11.6551 14.1225 12.3451 13.4175 12.7726L11.565 13.8826C10.815 14.3326 10.2 13.9876 10.2 13.1101V10.8826C10.2 10.0126 10.815 9.66757 11.565 10.1176Z" stroke="#FCFCFC" stroke-width="1.5" stroke-miterlimit="10" stroke-linecap="round" stroke-linejoin="round"/>
</svg>
